<svg data-v-fde0c5aa="" xmlns="http://www.w3.org/2000/svg" viewBox="0 0 300 300" class="iconAbove"><!----><defs data-v-fde0c5aa=""><!----></defs><rect data-v-fde0c5aa="" fill="transparent" x="0" y="0" width="300px" height="300px" class="logo-background-square"></rect><defs data-v-fde0c5aa=""><!----></defs><g data-v-fde0c5aa="" id="4b3519f5-d45c-4657-a555-a91c9701181a" fill="#000000"><path d=""></path></g><defs data-v-fde0c5aa=""><linearGradient data-v-fde0c5aa="" gradientTransform="rotate(25)" id="b120bb2c-f858-4834-a0f9-afb68cc95eaf" x1="0%" y1="0%" x2="100%" y2="0%"><stop data-v-fde0c5aa="" offset="0%" stop-color="#000A68" stop-opacity="1"></stop><stop data-v-fde0c5aa="" offset="100%" stop-color="#00C4EE" stop-opacity="1"></stop></linearGradient></defs><g data-v-fde0c5aa="" id="b8d1660c-56be-4edd-bef7-cf1eb1c4552b" stroke="none" fill="url(#b120bb2c-f858-4834-a0f9-afb68cc95eaf)"><path d="M39.109 83.973L14.882 54.942c-2.98 1.66-6.691 1.117-9.09-1.277 0-.043-2.234-1.957-2.234-5.395 0-5.605 5.851-9.27 10.87-6.906l18.149-24.977c-4.563-4.863-1.09-12.844 5.562-12.844 3.438 0 5.352 2.234 5.395 2.234a7.617 7.617 0 012.176 6.344l29.355 9.54a7.626 7.626 0 016.683-3.946c3.438 0 5.352 2.234 5.395 2.234 5.715 5.715-.32 15.242-7.906 12.602L69.085 50.086l13.68 6.899a7.623 7.623 0 016.042-2.973c3.438 0 5.352 2.235 5.395 2.235 4.805 4.804 1.36 13.023-5.394 13.023a7.611 7.611 0 01-5.395-2.235v-.004c-.047-.047-.094-.094-.137-.14l-30.93 19.805c2.156 7.511-7.176 13.059-12.727 7.503 0-.042-2.234-1.957-2.234-5.394 0-1.832.648-3.516 1.723-4.832zm28.535-31.398L50.011 83.044c.137.117.27.242.395.367h.003c.223.223.434.461.63.711L81.725 64.47a7.646 7.646 0 01-.254-4.922zm-8.89-7.703l7.761 3.914 10.234-17.68a7.116 7.116 0 01-.398-.371c0-.02-2.668-2.383-2.176-6.344l-29.36-9.539a7.692 7.692 0 01-3 3l7.798 18.32c4.07-.879 6.988 2.063 7.008 2.063a7.64 7.64 0 012.132 6.636zm6.32 6.406l-7.324-3.695a7.646 7.646 0 01-6.137 3.672l-4.223 30.3.133.044zm-21.06-5.144l-25.354 3.68a7.64 7.64 0 01-1.57 3.288l24.23 29.031a7.65 7.65 0 013.226-.941l4.227-30.332a7.623 7.623 0 01-2.938-1.828v-.004a7.626 7.626 0 01-1.82-2.895zm-25.323.77L43.6 43.29a7.612 7.612 0 013.367-5.985L39.073 18.75a7.618 7.618 0 01-4.175-.664l-18.145 24.97a7.608 7.608 0 011.937 3.847zm35.895-6.63c-2.98-2.976-8.11-.863-8.11 3.36 0 1.312.532 2.504 1.387 3.359l.004-.004c2.969 2.969 8.11.883 8.11-3.36 0-1.312-.532-2.5-1.391-3.359zm37.586 18.004c-2.98-2.976-8.11-.863-8.11 3.36 0 1.312.532 2.504 1.387 3.359l.004-.004c2.969 2.969 8.11.883 8.11-3.36 0-1.312-.532-2.5-1.391-3.359zm-7.063-36.293c-2.98-2.976-8.11-.863-8.11 3.36 0 1.312.532 2.504 1.387 3.359l.004-.004c2.97 2.969 8.11.883 8.11-3.36 0-1.312-.531-2.5-1.39-3.359zM41.5 7.813c-2.98-2.976-8.11-.863-8.11 3.36 0 1.312.532 2.504 1.387 3.359l.004-.004c2.97 2.969 8.11.883 8.11-3.36 0-1.312-.531-2.5-1.39-3.359zM14.547 44.911c-2.98-2.976-8.11-.863-8.11 3.36 0 1.312.532 2.504 1.387 3.359l.004-.004c2.97 2.969 8.11.883 8.11-3.36 0-1.312-.531-2.5-1.39-3.359zm33.828 40.535c-2.98-2.976-8.11-.863-8.11 3.36 0 1.312.532 2.504 1.388 3.359l.003-.004c2.97 2.969 8.11.883 8.11-3.36 0-1.312-.531-2.5-1.39-3.359z"></path></g><!----></svg>